<svg width="163" height="40" viewBox="0 0 163 40" fill="none" xmlns="http://www.w3.org/2000/svg">
<path d="M58.208 29.1249V12.3249H65.288C66.28 12.3249 67.168 12.5649 67.952 13.0449C68.752 13.5089 69.384 14.1489 69.848 14.9649C70.328 15.7649 70.568 16.6689 70.568 17.6769C70.568 18.7169 70.328 19.6529 69.848 20.4849C69.384 21.3009 68.752 21.9569 67.952 22.4529C67.168 22.9329 66.28 23.1729 65.288 23.1729H61.664V29.1249H58.208ZM61.64 20.0289H64.928C65.52 20.0289 66.016 19.8129 66.416 19.3809C66.832 18.9329 67.04 18.3809 67.04 17.7249C67.04 17.0689 66.832 16.5329 66.416 16.1169C66.016 15.6849 65.52 15.4689 64.928 15.4689H61.64V20.0289Z" fill="#CFD2D6"/>
<path d="M78.959 29.3649C77.663 29.3649 76.511 29.0849 75.503 28.5249C74.495 27.9489 73.703 27.1649 73.127 26.1729C72.551 25.1809 72.263 24.0449 72.263 22.7649C72.263 21.5009 72.551 20.3729 73.127 19.3809C73.703 18.3889 74.495 17.6129 75.503 17.0529C76.511 16.4769 77.663 16.1889 78.959 16.1889C80.223 16.1889 81.359 16.4769 82.367 17.0529C83.375 17.6129 84.167 18.3889 84.743 19.3809C85.319 20.3729 85.607 21.5009 85.607 22.7649C85.607 24.0449 85.319 25.1809 84.743 26.1729C84.167 27.1649 83.375 27.9489 82.367 28.5249C81.359 29.0849 80.223 29.3649 78.959 29.3649ZM78.959 26.5089C79.599 26.5089 80.175 26.3489 80.687 26.0289C81.199 25.6929 81.591 25.2449 81.863 24.6849C82.151 24.1249 82.295 23.4849 82.295 22.7649C82.295 22.0449 82.151 21.4049 81.863 20.8449C81.591 20.2849 81.199 19.8449 80.687 19.5249C80.175 19.2049 79.599 19.0449 78.959 19.0449C78.303 19.0449 77.719 19.2049 77.207 19.5249C76.695 19.8449 76.295 20.2849 76.007 20.8449C75.719 21.4049 75.575 22.0449 75.575 22.7649C75.575 23.4849 75.719 24.1249 76.007 24.6849C76.295 25.2449 76.695 25.6929 77.207 26.0289C77.719 26.3489 78.303 26.5089 78.959 26.5089Z" fill="#CFD2D6"/>
<path d="M93.2122 29.3649C92.0922 29.3649 91.0922 29.0849 90.2122 28.5249C89.3322 27.9489 88.6362 27.1649 88.1242 26.1729C87.6282 25.1809 87.3802 24.0529 87.3802 22.7889C87.3802 21.5089 87.6282 20.3729 88.1242 19.3809C88.6362 18.3889 89.3322 17.6129 90.2122 17.0529C91.0922 16.4769 92.0922 16.1889 93.2122 16.1889C93.9802 16.1889 94.7082 16.3409 95.3962 16.6449C96.1002 16.9489 96.6682 17.3409 97.1002 17.8209V11.3649H100.388V29.1249H97.2682L97.2202 27.6129C96.8042 28.1089 96.2362 28.5249 95.5162 28.8609C94.7962 29.1969 94.0282 29.3649 93.2122 29.3649ZM93.9322 26.6289C94.9082 26.6289 95.7002 26.2769 96.3082 25.5729C96.9162 24.8529 97.2202 23.9249 97.2202 22.7889C97.2202 21.6369 96.9162 20.7089 96.3082 20.0049C95.7002 19.2849 94.9082 18.9249 93.9322 18.9249C92.9562 18.9249 92.1642 19.2849 91.5562 20.0049C90.9482 20.7089 90.6442 21.6369 90.6442 22.7889C90.6442 23.9249 90.9482 24.8529 91.5562 25.5729C92.1642 26.2769 92.9562 26.6289 93.9322 26.6289Z" fill="#CFD2D6"/>
<path d="M109.208 29.3649C108.008 29.3649 106.928 29.0769 105.968 28.5009C105.024 27.9249 104.272 27.1409 103.712 26.1489C103.168 25.1569 102.896 24.0289 102.896 22.7649C102.896 21.5169 103.168 20.3969 103.712 19.4049C104.272 18.4129 105.024 17.6289 105.968 17.0529C106.928 16.4769 108.008 16.1889 109.208 16.1889C110.344 16.1889 111.376 16.3969 112.304 16.8129C113.248 17.2289 113.984 17.8129 114.512 18.5649L112.712 20.7249C112.376 20.2609 111.912 19.8689 111.32 19.5489C110.728 19.2129 110.128 19.0449 109.52 19.0449C108.848 19.0449 108.248 19.2129 107.72 19.5489C107.208 19.8689 106.8 20.3089 106.496 20.8689C106.208 21.4289 106.064 22.0609 106.064 22.7649C106.064 23.4689 106.216 24.1009 106.52 24.6609C106.824 25.2209 107.24 25.6689 107.768 26.0049C108.296 26.3249 108.888 26.4849 109.544 26.4849C110.168 26.4849 110.744 26.3489 111.272 26.0769C111.8 25.7889 112.28 25.3889 112.712 24.8769L114.512 27.0369C113.968 27.7409 113.216 28.3089 112.256 28.7409C111.296 29.1569 110.28 29.3649 109.208 29.3649Z" fill="#CFD2D6"/>
<path d="M121.472 29.3649C120.416 29.3649 119.464 29.0769 118.616 28.5009C117.768 27.9249 117.088 27.1409 116.576 26.1489C116.08 25.1569 115.832 24.0289 115.832 22.7649C115.832 21.4689 116.08 20.3329 116.576 19.3569C117.088 18.3649 117.776 17.5889 118.64 17.0289C119.52 16.4689 120.512 16.1889 121.616 16.1889C122.512 16.1889 123.296 16.3729 123.968 16.7409C124.64 17.0929 125.176 17.5569 125.576 18.1329V16.4529H128.84V29.1249H125.552V27.4209C125.104 27.9809 124.52 28.4449 123.8 28.8129C123.096 29.1809 122.32 29.3649 121.472 29.3649ZM122.36 26.5089C123.336 26.5089 124.128 26.1649 124.736 25.4769C125.344 24.7889 125.648 23.8849 125.648 22.7649C125.648 21.6449 125.344 20.7409 124.736 20.0529C124.128 19.3649 123.336 19.0209 122.36 19.0209C121.4 19.0209 120.616 19.3649 120.008 20.0529C119.416 20.7409 119.12 21.6449 119.12 22.7649C119.12 23.8849 119.416 24.7889 120.008 25.4769C120.616 26.1649 121.4 26.5089 122.36 26.5089Z" fill="#CFD2D6"/>
<path d="M136.531 29.3649C135.363 29.3649 134.323 29.1729 133.411 28.7889C132.499 28.4049 131.763 27.8609 131.203 27.1569L133.267 25.4049C133.747 25.9329 134.291 26.3169 134.899 26.5569C135.507 26.7809 136.123 26.8929 136.747 26.8929C137.243 26.8929 137.643 26.7809 137.947 26.5569C138.251 26.3329 138.403 26.0209 138.403 25.6209C138.403 25.2689 138.259 24.9889 137.971 24.7809C137.683 24.5889 136.995 24.3489 135.907 24.0609C134.291 23.6449 133.147 23.0769 132.475 22.3569C131.883 21.7169 131.587 20.9249 131.587 19.9809C131.587 19.2289 131.811 18.5729 132.259 18.0129C132.707 17.4369 133.299 16.9889 134.035 16.6689C134.771 16.3489 135.571 16.1889 136.435 16.1889C137.427 16.1889 138.363 16.3649 139.243 16.7169C140.123 17.0689 140.859 17.5489 141.451 18.1569L139.675 20.1009C139.227 19.6849 138.707 19.3409 138.115 19.0689C137.539 18.7809 137.003 18.6369 136.507 18.6369C135.355 18.6369 134.779 19.0369 134.779 19.8369C134.795 20.2209 134.971 20.5249 135.307 20.7489C135.627 20.9729 136.355 21.2369 137.491 21.5409C139.011 21.9409 140.083 22.4689 140.707 23.1249C141.251 23.6849 141.523 24.4289 141.523 25.3569C141.523 26.1249 141.299 26.8129 140.851 27.4209C140.419 28.0289 139.827 28.5089 139.075 28.8609C138.323 29.1969 137.475 29.3649 136.531 29.3649Z" fill="#CFD2D6"/>
<path d="M145.249 29.1249V19.4049H142.849V16.4529H145.249V13.2129H148.513V16.4529H151.177V19.4049H148.513V29.1249H145.249Z" fill="#CFD2D6"/>
<path d="M153.376 29.1249V16.4529H156.544L156.592 18.5409C157.008 17.8529 157.552 17.2929 158.224 16.8609C158.912 16.4129 159.632 16.1889 160.384 16.1889C160.672 16.1889 160.936 16.2129 161.176 16.2609C161.432 16.2929 161.648 16.3409 161.824 16.4049L160.936 20.0049C160.76 19.9089 160.536 19.8289 160.264 19.7649C159.992 19.7009 159.72 19.6689 159.448 19.6689C158.664 19.6689 158 19.9409 157.456 20.4849C156.928 21.0129 156.664 21.6849 156.664 22.5009V29.1249H153.376Z" fill="#CFD2D6"/>
<path d="M38.125 20.0125C38.1494 23.1791 37.3398 26.2963 35.7774 29.0508C35.575 29.4086 35.3607 29.7586 35.1344 30.1008C35.0225 30.2747 34.8772 30.4247 34.7069 30.542C34.5367 30.6594 34.3448 30.7418 34.1424 30.7844C33.94 30.827 33.7312 30.829 33.5281 30.7904C33.3249 30.7517 33.1315 30.6731 32.9589 30.559C32.7864 30.445 32.6382 30.2979 32.523 30.1262C32.4077 29.9545 32.3277 29.7616 32.2875 29.5587C32.2474 29.3559 32.2479 29.1471 32.2891 28.9444C32.3303 28.7417 32.4113 28.5493 32.5274 28.3781C34.0185 26.1146 34.8685 23.4893 34.987 20.7813C35.1054 18.0733 34.4879 15.3838 33.2001 12.9987C31.9123 10.6136 30.0022 8.62202 27.673 7.23563C25.3438 5.84924 22.6825 5.11987 19.9719 5.12504C14.7618 5.1352 10.1422 7.87035 7.45706 11.957C5.85189 14.3952 4.99772 17.2508 5.0005 20.1699C5.00327 23.089 5.86288 25.9431 7.47269 28.3781C7.70092 28.724 7.78239 29.1465 7.69917 29.5524C7.61595 29.9584 7.37486 30.3147 7.02894 30.543C6.68302 30.7712 6.2606 30.8527 5.85461 30.7694C5.44863 30.6862 5.09233 30.4451 4.8641 30.0992C3.0791 27.3904 2.05381 24.2521 1.89521 21.0119C1.73662 17.7717 2.45053 14.5484 3.96245 11.6782C5.47437 8.808 7.72889 6.39615 10.4907 4.69435C13.2526 2.99255 16.4206 2.06316 19.6641 2.00316C19.7782 2.00082 19.8914 2.00004 20.0047 2.00004C24.7949 1.99017 29.3933 3.88131 32.7905 7.25835C36.1878 10.6354 38.1063 15.2224 38.125 20.0125Z" fill="#CFD2D6"/>
<path d="M9.06588 22.7944L11.8978 36.8819C12.0678 37.7276 12.8911 38.2753 13.7368 38.1053C14.5825 37.9353 15.1303 37.1119 14.9603 36.2663L12.1284 22.1788C11.9584 21.3331 11.135 20.7853 10.2893 20.9553C9.44363 21.1253 8.89588 21.9487 9.06588 22.7944Z" fill="#04D361"/>
<path d="M11.8438 36.5641L11.1258 36.7086C10.059 36.9234 8.95038 36.7225 8.02677 36.147C7.10316 35.5715 6.43432 34.6648 6.15706 33.6125C6.13597 33.5313 6.11644 33.45 6.10003 33.3672L5.07112 28.2555C4.84815 27.1459 5.07485 25.9931 5.70141 25.0506C6.32796 24.108 7.3031 23.4528 8.41253 23.2289L9.1305 23.0844L10.3899 29.3406L11.8438 36.5641Z" fill="#CFD2D6"/>
<path d="M11.8438 36.5641L11.1259 36.7086C10.059 36.9234 8.95043 36.7225 8.02682 36.147C7.1032 35.5715 6.43437 34.6649 6.1571 33.6125C7.67448 32.2981 9.08951 30.87 10.3899 29.3407L11.8438 36.5641Z" fill="#CFD2D6"/>
<path d="M36.1477 27.0875L35.7774 28.9258C35.575 29.2836 35.3607 29.6336 35.1344 29.9758C35.0225 30.1497 34.8772 30.2997 34.7069 30.4171C34.5366 30.5344 34.3448 30.6168 34.1424 30.6594C33.94 30.702 33.7312 30.7041 33.5281 30.6654C33.3249 30.6267 33.1315 30.5481 32.9589 30.4341C32.7864 30.3201 32.6382 30.1729 32.5229 30.0012C32.4077 29.8295 32.3277 29.6366 32.2875 29.4338C32.2474 29.2309 32.2479 29.0221 32.2891 28.8194C32.3303 28.6167 32.4112 28.4243 32.5274 28.2531C33.5865 26.6502 34.3258 24.8577 34.7047 22.9742C35.2927 23.4668 35.7371 24.1089 35.991 24.8327C36.245 25.5566 36.2991 26.3355 36.1477 27.0875Z" fill="#CFD2D6"/>
<path d="M34.2953 8.8297L32.0539 11.0711C30.6573 9.1825 28.836 7.6489 26.7371 6.59425C24.6383 5.53961 22.3208 4.99348 19.9719 5.00001C14.7617 5.01016 10.1422 7.74533 7.45703 11.832L5.18359 9.5586C6.82274 7.22937 8.98843 5.31983 11.5046 3.98526C14.0207 2.65068 16.8163 1.92874 19.6641 1.87813C19.7781 1.87579 19.8914 1.87501 20.0047 1.87501C22.7591 1.86884 25.4786 2.49222 27.9553 3.69755C30.4321 4.90289 32.6006 6.65829 34.2953 8.8297Z" fill="#8257E5"/>
<path d="M27.8464 22.1635L25.0145 36.251C24.8445 37.0967 25.3922 37.9201 26.2379 38.0901C27.0836 38.2601 27.907 37.7123 28.077 36.8666L30.9089 22.7791C31.0789 21.9335 30.5311 21.1101 29.6854 20.9401C28.8397 20.7701 28.0164 21.3178 27.8464 22.1635Z" fill="#04D361"/>
<path d="M34.9289 28.2555L33.9 33.3672C33.6766 34.4767 33.0216 35.4521 32.0791 36.0787C31.1366 36.7054 29.9838 36.9319 28.8742 36.7086L28.1562 36.5641L28.9 32.8711L30.8695 23.0844L31.5875 23.2289C32.6968 23.4531 33.672 24.108 34.2992 25.05C34.3856 25.1799 34.4646 25.3144 34.5359 25.4531C34.9817 26.3154 35.1203 27.3038 34.9289 28.2555Z" fill="#CFD2D6"/>
<path d="M34.9289 28.2555L33.9 33.3672C33.6766 34.4768 33.0216 35.4521 32.0791 36.0788C31.1366 36.7054 29.9838 36.932 28.8742 36.7086L28.1562 36.5641L28.9 32.8711C31.0403 30.6086 32.9299 28.1215 34.5359 25.4531C34.9817 26.3154 35.1203 27.3039 34.9289 28.2555Z" fill="#CFD2D6"/>
</svg>
