<svg width="32" height="32" viewBox="0 0 32 32" fill="none" xmlns="http://www.w3.org/2000/svg">
<path d="M16 7.98511C11.5805 7.98511 7.98512 11.5812 7.98512 16.0007C7.98512 20.4202 11.5805 24.0163 16 24.0163C20.4188 24.0163 24.0149 20.4209 24.0149 16.0007C24.0149 11.5805 20.4188 7.98511 16 7.98511Z" fill="#CFD2D6"/>
<path d="M16 5.62905C15.1362 5.62905 14.4361 4.92896 14.4361 4.0659V1.56386C14.4361 0.700089 15.1362 0 16 0C16.8638 0 17.5639 0.700089 17.5639 1.56386V4.0659C17.5639 4.92896 16.8631 5.62905 16 5.62905Z" fill="#CFD2D6"/>
<path d="M16 26.3702C15.1362 26.3702 14.4361 27.0703 14.4361 27.9341V30.4354C14.4361 31.2999 15.1362 32 16 32C16.8638 32 17.5639 31.2999 17.5639 30.4354V27.9341C17.5639 27.0703 16.8631 26.3702 16 26.3702Z" fill="#CFD2D6"/>
<path d="M23.3325 8.66677C22.7224 8.05597 22.7224 7.06606 23.3325 6.45526L25.1019 4.68591C25.712 4.07581 26.7026 4.07581 27.3134 4.68591C27.9242 5.29671 27.9242 6.28732 27.3134 6.89742L25.544 8.66677C24.9339 9.27758 23.944 9.27758 23.3325 8.66677Z" fill="#CFD2D6"/>
<path d="M8.66678 23.3339C8.05597 22.7224 7.06607 22.7224 6.45526 23.3339L4.68591 25.1026C4.07581 25.7127 4.07511 26.704 4.68591 27.3141C5.29672 27.9242 6.28733 27.9242 6.89743 27.3141L8.66678 25.544C9.27759 24.9339 9.27759 23.9433 8.66678 23.3339Z" fill="#CFD2D6"/>
<path d="M26.3702 16C26.3702 15.1362 27.0703 14.4362 27.9341 14.4362H30.4361C31.2999 14.4362 32 15.1362 32 16C32 16.8638 31.2999 17.5632 30.4361 17.5632H27.9341C27.0703 17.5632 26.3702 16.8638 26.3702 16Z" fill="#CFD2D6"/>
<path d="M5.62905 16C5.62905 15.1362 4.92896 14.4362 4.06519 14.4362H1.56386C0.700089 14.4362 0 15.1362 0 16C0 16.8638 0.700089 17.5632 1.56386 17.5632H4.0659C4.92896 17.5632 5.62905 16.8638 5.62905 16Z" fill="#CFD2D6"/>
<path d="M23.3325 23.3339C23.9433 22.7238 24.9339 22.7238 25.544 23.3339L27.3134 25.1033C27.9242 25.7127 27.9242 26.704 27.3134 27.3141C26.7026 27.9242 25.7127 27.9242 25.1019 27.3141L23.3325 25.5447C22.7217 24.9339 22.7217 23.944 23.3325 23.3339Z" fill="#CFD2D6"/>
<path d="M8.66679 8.66678C9.27759 8.05597 9.27759 7.06607 8.66679 6.45527L6.89743 4.68662C6.28663 4.07581 5.29672 4.07581 4.68592 4.68662C4.07511 5.29672 4.07511 6.28733 4.68592 6.89743L6.45527 8.66678C7.06608 9.2783 8.05598 9.2783 8.66679 8.66678Z" fill="#CFD2D6"/>
</svg>
